<?xml version="1.0" encoding="iso-8859-1"?>
<!-- Generator: Adobe Illustrator 19.0.0, SVG Export Plug-In . SVG Version: 6.00 Build 0)  -->
<svg version="1.1" id="Capa_1" xmlns="http://www.w3.org/2000/svg" xmlns:xlink="http://www.w3.org/1999/xlink" x="0px" y="0px"
	 viewBox="0 0 512.001 512.001" style="enable-background:new 0 0 512.001 512.001;" xml:space="preserve">
<path style="fill:#E6EAEE;" d="M291.826,340.788h-71.649c-2.761,0-5-2.239-5-5V314c0-2.761,2.239-5,5-5h71.649c2.761,0,5,2.239,5,5
	v21.788C296.826,338.55,294.586,340.788,291.826,340.788z"/>
<path style="fill:#CDD3D9;" d="M296.823,313.103v23.579c0,2.265-1.838,4.104-4.104,4.104h-24.162c2.265,0,4.104-1.838,4.104-4.104
	v-23.579c0-2.265-1.838-4.104-4.104-4.104h24.162C294.984,309,296.823,310.838,296.823,313.103z"/>
<path style="fill:#FFD071;" d="M252.458,157.839l-45.435,77.729c-7.336,12.55-5.933,28.368,3.497,39.431l6.103,7.159
	c5.656,6.636,8.763,15.069,8.763,23.789V309h61.228v-3.053c0-8.719,3.107-17.153,8.763-23.789l6.103-7.159
	c9.43-11.063,10.833-26.88,3.498-39.43l-45.434-77.729C257.959,155.129,254.042,155.129,252.458,157.839z"/>
<path style="fill:#F7B657;" d="M301.477,274.997l-6.098,7.165c-5.655,6.631-8.765,15.068-8.765,23.784V309H271.29v-3.053
	c0-8.716,3.111-17.153,8.765-23.784l6.106-7.165c9.43-11.063,10.834-26.879,3.496-39.427l-41.315-70.689l4.112-7.042
	c1.584-2.708,5.507-2.708,7.091,0l45.435,77.73C312.31,248.119,310.906,263.934,301.477,274.997z"/>
<path style="fill:#FF6E5E;" d="M281.886,408.793h-51.932c-2.268,0-4.106-1.84-4.104-4.109l0.08-63.896h60.14l-0.08,63.907
	C285.987,406.959,284.15,408.793,281.886,408.793z"/>
<path style="fill:#F4584D;" d="M281.946,408.793h-10.9l0.021-68.005h15.002l-0.02,63.903
	C286.049,406.957,284.212,408.793,281.946,408.793z"/>
<circle style="fill:#E6EAEE;" cx="256" cy="249.5" r="19.11"/>
<path style="fill:#CDD3D9;" d="M275.106,249.497c0,10.546-8.552,19.106-19.106,19.106c-1.921,0-3.775-0.287-5.523-0.813
	c7.854-2.372,13.583-9.668,13.583-18.294c0-8.634-5.729-15.922-13.583-18.294c1.748-0.525,3.603-0.813,5.523-0.813
	C266.554,230.391,275.106,238.943,275.106,249.497z"/>
<path style="fill:#5C6D7D;" d="M506.835,223.112H475.23c-2.498,0-4.656-1.786-5.08-4.248c-2.244-13.028-5.649-25.661-10.109-37.787
	c-0.862-2.345,0.112-4.969,2.275-6.218l27.238-15.727c2.541-1.456,3.409-4.71,1.942-7.241l-27.579-47.783
	c-1.467-2.541-4.71-3.409-7.251-1.942l-27.296,15.752c-2.161,1.247-4.917,0.781-6.517-1.133
	c-8.37-10.016-17.622-19.269-27.638-27.638c-1.915-1.6-2.38-4.356-1.133-6.517l15.752-27.296c1.467-2.541,0.599-5.784-1.942-7.251
	l-47.783-27.579c-2.531-1.467-5.784-0.599-7.241,1.942l-15.727,27.238c-1.249,2.164-3.873,3.138-6.218,2.275
	c-12.125-4.46-24.759-7.865-37.787-10.109c-2.462-0.424-4.248-2.582-4.248-5.08V5.165c0-2.852-2.312-5.165-5.165-5.165h-55.447
	c-2.852,0-5.165,2.312-5.165,5.165V36.77c0,2.498-1.786,4.656-4.248,5.08c-13.028,2.243-25.662,5.649-37.787,10.109
	c-2.345,0.862-4.969-0.112-6.218-2.275l-15.727-27.238c-1.456-2.541-4.71-3.409-7.241-1.942l-47.783,27.579
	c-2.541,1.467-3.409,4.71-1.942,7.251l15.752,27.296c1.247,2.161,0.781,4.917-1.133,6.517c-10.016,8.37-19.269,17.622-27.638,27.638
	c-1.6,1.915-4.356,2.38-6.517,1.133l-27.296-15.752c-2.541-1.467-5.784-0.599-7.251,1.942l-27.579,47.783
	c-1.467,2.531-0.599,5.784,1.942,7.241l27.239,15.727c2.164,1.249,3.138,3.873,2.275,6.218c-4.46,12.125-7.865,24.759-10.109,37.787
	c-0.424,2.462-2.582,4.248-5.08,4.248H5.165c-2.852,0-5.165,2.312-5.165,5.165v55.447c0,2.852,2.312,5.165,5.165,5.165H36.77
	c2.498,0,4.656,1.786,5.08,4.248c2.244,13.028,5.649,25.662,10.109,37.787c0.862,2.345-0.112,4.969-2.275,6.218l-27.239,15.727
	c-2.541,1.456-3.409,4.71-1.942,7.241l27.579,47.783c1.467,2.541,4.71,3.409,7.251,1.942l27.296-15.752
	c2.161-1.247,4.917-0.781,6.517,1.133c8.37,10.016,17.622,19.269,27.638,27.638c1.915,1.6,2.38,4.356,1.133,6.517l-15.752,27.296
	c-1.467,2.541-0.599,5.784,1.942,7.251l47.783,27.579c2.531,1.467,5.784,0.599,7.241-1.942l15.727-27.238
	c1.249-2.164,3.873-3.138,6.218-2.275c12.125,4.46,24.759,7.865,37.787,10.109c2.462,0.424,4.248,2.582,4.248,5.08v31.605
	c0,2.852,2.312,5.165,5.165,5.165h55.447c2.852,0,5.165-2.312,5.165-5.165V475.23c0-2.498,1.786-4.656,4.248-5.08
	c13.028-2.243,25.662-5.649,37.787-10.109c2.345-0.862,4.969,0.112,6.218,2.275l15.727,27.238c1.456,2.541,4.71,3.409,7.241,1.942
	l47.783-27.579c2.541-1.467,3.409-4.71,1.942-7.251l-15.752-27.296c-1.247-2.161-0.781-4.917,1.133-6.517
	c10.016-8.37,19.269-17.622,27.638-27.638c1.6-1.915,4.356-2.38,6.517-1.133l27.296,15.752c2.541,1.467,5.784,0.599,7.251-1.942
	l27.579-47.783c1.467-2.531,0.599-5.784-1.942-7.241l-27.238-15.727c-2.164-1.249-3.138-3.873-2.275-6.218
	c4.46-12.125,7.865-24.759,10.109-37.787c0.424-2.462,2.582-4.248,5.08-4.248h31.605c2.852,0,5.165-2.312,5.165-5.165v-55.447
	C512,225.424,509.688,223.112,506.835,223.112z M365.149,366.189C205.153,487.297,24.703,306.848,145.81,146.852
	c0.246-0.324,0.716-0.795,1.041-1.041c159.995-121.108,340.446,59.341,219.338,219.337
	C365.944,365.473,365.473,365.944,365.149,366.189z"/>
<path style="fill:#53616D;" d="M506.835,223.112H475.23c-2.498,0-4.656-1.786-5.08-4.248c-2.244-13.028-5.649-25.661-10.109-37.787
	c-0.862-2.345,0.112-4.969,2.275-6.218l27.238-15.727c2.541-1.456,3.409-4.71,1.942-7.241l-27.579-47.783
	c-1.467-2.541-4.71-3.409-7.251-1.942l-27.296,15.752c-2.161,1.247-4.917,0.781-6.517-1.133
	c-8.37-10.016-17.622-19.269-27.638-27.638c-1.915-1.6-2.38-4.356-1.133-6.517l15.752-27.296c1.467-2.541,0.599-5.784-1.942-7.251
	l-47.783-27.579c-2.531-1.467-5.784-0.599-7.241,1.942l-15.727,27.239c-1.25,2.165-3.875,3.136-6.221,2.273
	c-4.598-1.69-9.272-3.226-14.008-4.608C384.103,92.395,428.323,169.028,428.323,256s-44.22,163.605-111.411,208.651
	c4.736-1.382,9.41-2.918,14.008-4.608c2.346-0.863,4.971,0.108,6.221,2.273l15.727,27.239c1.456,2.541,4.71,3.409,7.241,1.942
	l47.783-27.579c2.541-1.467,3.409-4.71,1.942-7.251l-15.752-27.296c-1.247-2.161-0.781-4.917,1.133-6.517
	c10.016-8.37,19.269-17.622,27.638-27.638c1.6-1.915,4.356-2.38,6.517-1.133l27.296,15.752c2.541,1.467,5.784,0.599,7.251-1.942
	l27.579-47.783c1.467-2.531,0.599-5.784-1.942-7.241l-27.238-15.727c-2.164-1.249-3.138-3.873-2.275-6.218
	c4.46-12.125,7.865-24.759,10.109-37.787c0.424-2.462,2.582-4.248,5.08-4.248h31.605c2.852,0,5.165-2.312,5.165-5.165v-55.447
	C512,225.424,509.688,223.112,506.835,223.112z"/>
<g>
</g>
<g>
</g>
<g>
</g>
<g>
</g>
<g>
</g>
<g>
</g>
<g>
</g>
<g>
</g>
<g>
</g>
<g>
</g>
<g>
</g>
<g>
</g>
<g>
</g>
<g>
</g>
<g>
</g>
</svg>
